<svg width="1024" height="1024" viewBox="0 0 1024 1024" fill="none" xmlns="http://www.w3.org/2000/svg">
<path fill-rule="evenodd" clip-rule="evenodd" d="M55 507C55 252.397 261.397 46 516 46H977V968H516C261.397 968 55 761.603 55 507ZM768 507L384 728.703L384 285.298L768 507ZM559.137 925C560.97 930.667 564.803 933.5 570.637 933.5C573.803 933.5 576.303 932.917 578.137 931.75C580.137 930.417 581.637 928.167 582.637 925L616.887 819L646.137 924.5C647.637 930.5 651.637 933.5 658.137 933.5C660.803 933.5 663.137 932.833 665.137 931.5C667.137 930 668.553 928 669.387 925.5L722.137 779.5C722.97 777 723.387 774.333 723.387 771.5C723.387 768.333 722.22 765.75 719.887 763.75C717.553 761.583 714.72 760.5 711.387 760.5C705.553 760.5 701.553 763.417 699.387 769.25L659.387 880L629.637 772C627.97 766.167 624.137 763.25 618.137 763.25C611.97 763.25 607.97 766.083 606.137 771.75L571.137 879.75L538.387 772C536.553 766.167 532.553 763.25 526.387 763.25C523.053 763.25 520.22 764.333 517.887 766.5C515.553 768.5 514.387 771.083 514.387 774.25C514.387 776.583 514.803 779.25 515.637 782.25L559.137 925ZM751.35 926C760.85 931 771.516 933.5 783.35 933.5C791.016 933.5 798.683 931.75 806.35 928.25C814.183 924.583 820.433 920.167 825.1 915C827.1 912.667 828.1 910.167 828.1 907.5C828.1 904.333 826.933 901.667 824.6 899.5C822.433 897.333 819.683 896.25 816.35 896.25C813.516 896.25 810.766 897.583 808.1 900.25C801.266 907.417 793.016 911 783.35 911C776.016 911 769.35 909.583 763.35 906.75C757.516 903.917 753.433 899.917 751.1 894.75L818.1 856.25C820.6 854.75 822.516 853 823.85 851C825.183 849 825.85 846.917 825.85 844.75C825.85 840.25 824.016 835.167 820.35 829.5C816.683 823.833 811.183 819 803.85 815C796.683 810.833 788.016 808.75 777.85 808.75C766.85 808.75 757.016 811.667 748.35 817.5C739.85 823.333 733.183 831.083 728.35 840.75C723.683 850.25 721.35 860.25 721.35 870.75C721.35 883.583 724.016 894.75 729.35 904.25C734.683 913.583 742.016 920.833 751.35 926ZM792.6 834C796.266 835.667 799.1 838.25 801.1 841.75L744.1 874C744.1 870.5 744.266 867.5 744.6 865C745.6 855.5 749.266 847.5 755.6 841C762.1 834.5 770.1 831.25 779.6 831.25C784.6 831.25 788.933 832.167 792.6 834ZM855.402 930C857.569 932.167 860.319 933.25 863.652 933.25C866.652 933.25 869.152 932.417 871.152 930.75C873.319 929.083 874.402 927.417 874.402 925.75V924.25C877.236 926.25 881.236 928.083 886.402 929.75C891.736 931.25 896.736 932 901.402 932C918.402 932 931.819 926.417 941.652 915.25C951.486 903.917 956.402 887.583 956.402 866.25C956.402 854.417 954.319 844.333 950.152 836C946.152 827.667 940.736 821.417 933.902 817.25C927.069 812.917 919.486 810.75 911.152 810.75C904.152 810.75 897.736 811.917 891.902 814.25C886.069 816.583 880.736 820.417 875.902 825.75V776.75C875.902 773.417 874.736 770.75 872.402 768.75C870.069 766.583 867.319 765.5 864.152 765.5C860.819 765.5 857.986 766.583 855.652 768.75C853.319 770.75 852.152 773.417 852.152 776.75V922C852.152 925.167 853.236 927.833 855.402 930ZM924.902 897.5C919.736 904.833 911.319 908.5 899.652 908.5C892.319 908.5 884.402 907.083 875.902 904.25V861C875.902 856.167 877.402 851.75 880.402 847.75C883.569 843.75 887.819 840.583 893.152 838.25C898.486 835.917 904.319 834.75 910.652 834.75C917.486 834.75 922.902 837.417 926.902 842.75C930.902 848.083 932.902 855.917 932.902 866.25C932.902 879.75 930.236 890.167 924.902 897.5Z" fill="#25AAE1"/>
</svg>
